<svg width="16" height="16" viewBox="0 0 16 16" fill="none" xmlns="http://www.w3.org/2000/svg">
<path d="M11.3359 6C12.786 6.00807 13.5712 6.07237 14.0835 6.58463C14.6693 7.17041 14.6693 8.11322 14.6693 9.99884V10.6655C14.6693 12.5511 14.6693 13.4939 14.0835 14.0797C13.4977 14.6655 12.5549 14.6655 10.6693 14.6655H5.33594C3.45032 14.6655 2.50751 14.6655 1.92172 14.0797C1.33594 13.4939 1.33594 12.5511 1.33594 10.6655L1.33594 9.99884C1.33594 8.11322 1.33594 7.17041 1.92172 6.58463C2.43398 6.07237 3.21925 6.00807 4.66927 6" stroke="#0F5A43" stroke-width="1.5" stroke-linecap="round"/>
<path d="M8 10L8 1.33333M8 1.33333L10 3.66667M8 1.33333L6 3.66667" stroke="#0F5A43" stroke-width="1.5" stroke-linecap="round" stroke-linejoin="round"/>
</svg>
